<svg xmlns="http://www.w3.org/2000/svg" xmlns:xlink="http://www.w3.org/1999/xlink" width="60px" height="88px" viewBox="0 0 60 88" version="1.1">
    <!-- Generator: Sketch 57.1 (83088) - https://sketch.com -->
    <title>Group 4</title>
    <desc>Created with Sketch.</desc>
    <g id="Congratulation" stroke="none" stroke-width="1" fill="none" fill-rule="evenodd">
        <g id="Congratulation-1" transform="translate(-610.000000, -204.000000)">
            <g id="Group-4" transform="translate(610.000000, 204.000000)">
                <g id="checklist" fill-rule="nonzero">
                    <polygon id="Path" fill="#ECECEC" points="0.150128888 3.82608696 59.9014264 3.82608696 59.9014264 88 0.150128888 88"/>
                    <g id="Group" transform="translate(7.131122, 0.000000)" fill="#C9C8C6">
                        <polygon id="Path" points="7.95683107 0 37.8324798 0 37.8324798 7.65217391 7.95683107 7.65217391"/>
                        <path d="M8.8576044,54.3295652 L1.35115999,54.3295652 C0.600515553,54.3295652 2.85105273e-13,53.7173913 2.85105273e-13,52.9521739 C2.85105273e-13,52.1869565 0.600515553,51.5747826 1.35115999,51.5747826 L8.8576044,51.5747826 C9.60824884,51.5747826 10.2087644,52.1869565 10.2087644,52.9521739 C10.2087644,53.7173913 9.5331844,54.3295652 8.8576044,54.3295652 Z" id="Path"/>
                        <path d="M44.5132153,54.3295652 L17.8653377,54.3295652 C17.1146932,54.3295652 16.5141777,53.7173913 16.5141777,52.9521739 C16.5141777,52.1869565 17.1146932,51.5747826 17.8653377,51.5747826 L44.5132153,51.5747826 C45.2638598,51.5747826 45.8643753,52.1869565 45.8643753,52.9521739 C45.8643753,53.7173913 45.1887953,54.3295652 44.5132153,54.3295652 Z" id="Path"/>
                        <path d="M8.8576044,65.7078261 L1.35115999,65.7078261 C0.600515553,65.7078261 2.85105273e-13,65.0956522 2.85105273e-13,64.3304348 C2.85105273e-13,63.5652174 0.600515553,62.9530435 1.35115999,62.9530435 L8.8576044,62.9530435 C9.60824884,62.9530435 10.2087644,63.5652174 10.2087644,64.3304348 C10.2087644,65.0956522 9.5331844,65.7078261 8.8576044,65.7078261 Z" id="Path"/>
                        <path d="M44.5132153,65.7078261 L17.8653377,65.7078261 C17.1146932,65.7078261 16.5141777,65.0956522 16.5141777,64.3304348 C16.5141777,63.5652174 17.1146932,62.9530435 17.8653377,62.9530435 L44.5132153,62.9530435 C45.2638598,62.9530435 45.8643753,63.5652174 45.8643753,64.3304348 C45.8643753,65.0956522 45.1887953,65.7078261 44.5132153,65.7078261 Z" id="Path"/>
                        <path d="M8.8576044,77.086087 L1.35115999,77.086087 C0.600515553,77.086087 2.85105273e-13,76.473913 2.85105273e-13,75.7086957 C2.85105273e-13,74.9434783 0.600515553,74.3313043 1.35115999,74.3313043 L8.8576044,74.3313043 C9.60824884,74.3313043 10.2087644,74.9434783 10.2087644,75.7086957 C10.2087644,76.473913 9.5331844,77.086087 8.8576044,77.086087 Z" id="Path"/>
                        <path d="M44.5132153,77.086087 L17.8653377,77.086087 C17.1146932,77.086087 16.5141777,76.473913 16.5141777,75.7086957 C16.5141777,74.9434783 17.1146932,74.3313043 17.8653377,74.3313043 L44.5132153,74.3313043 C45.2638598,74.3313043 45.8643753,74.9434783 45.8643753,75.7086957 C45.8643753,76.473913 45.1887953,77.086087 44.5132153,77.086087 Z" id="Path"/>
                    </g>
                </g>
                <g id="Group-36" transform="translate(19.000000, 18.000000)">
                    <circle id="Oval" fill="#2CA83A" cx="11" cy="11" r="11"/>
                    <path d="M16.4428683,5.69765377 C16.8146576,6.01536809 16.8973259,6.60358308 16.6275129,7.01146873 L10.7426544,14.4504021 C10.4728415,14.8582878 9.95272002,14.9313861 9.58093065,14.6136718 L9.5608683,14.5964095 C9.46769203,14.5526802 9.38031153,14.4943572 9.30259526,14.4214405 L5.79122861,10.7872611 C5.4029238,10.4229369 5.4029238,9.83225082 5.79122861,9.46792669 C6.17953343,9.10360255 6.80909993,9.10360255 7.19740474,9.46792669 C8.24396485,10.5784312 9.02844272,11.4040168 9.55083833,11.9446836 C9.68534337,12.0838931 9.85468161,12.255436 10.058853,12.4593123 L15.2811445,5.86092339 C15.5509575,5.45303774 16.0710789,5.37993944 16.4428683,5.69765377 Z" id="Combined-Shape" fill="#FFFFFF" transform="translate(11.143081, 10.155663) rotate(-360.000000) translate(-11.143081, -10.155663) "/>
                </g>
            </g>
        </g>
    </g>
</svg>
